<mxfile host="app.diagrams.net" modified="2023-01-08T14:12:16.051Z" agent="5.0 (Windows NT 10.0; Win64; x64) AppleWebKit/537.36 (KHTML, like Gecko) Chrome/108.0.0.0 Safari/537.36" version="20.7.4" etag="xL8mchxn2QIvgZXhB0BE" type="github">
  <diagram id="viVbAv9PvB_NZk1dv9TB" name="페이지-1">
    <mxGraphModel dx="1434" dy="796" grid="1" gridSize="10" guides="1" tooltips="1" connect="1" arrows="1" fold="1" page="1" pageScale="1" pageWidth="827" pageHeight="1169" math="0" shadow="0">
      <root>
        <mxCell id="0" />
        <mxCell id="1" parent="0" />
        <mxCell id="DRMCdF9hFIa0MKTjvYQ9-1" value="외부평가 쇼핑몰 시스템" style="shape=umlFrame;whiteSpace=wrap;html=1;width=160;height=30;" vertex="1" parent="1">
          <mxGeometry x="170" y="70" width="450" height="530" as="geometry" />
        </mxCell>
        <mxCell id="DRMCdF9hFIa0MKTjvYQ9-2" value="고객" style="shape=umlActor;verticalLabelPosition=bottom;verticalAlign=top;html=1;" vertex="1" parent="1">
          <mxGeometry x="60" y="100" width="30" height="60" as="geometry" />
        </mxCell>
        <mxCell id="DRMCdF9hFIa0MKTjvYQ9-4" value="DB" style="shape=cylinder3;whiteSpace=wrap;html=1;boundedLbl=1;backgroundOutline=1;size=15;" vertex="1" parent="1">
          <mxGeometry x="720" y="170" width="60" height="80" as="geometry" />
        </mxCell>
        <mxCell id="DRMCdF9hFIa0MKTjvYQ9-5" value="회원목록" style="rounded=1;whiteSpace=wrap;html=1;arcSize=40;fontColor=#000000;fillColor=#ffffc0;strokeColor=#ff0000;" vertex="1" parent="1">
          <mxGeometry x="190" y="330" width="120" height="40" as="geometry" />
        </mxCell>
        <mxCell id="DRMCdF9hFIa0MKTjvYQ9-7" value="회원등록" style="rounded=1;whiteSpace=wrap;html=1;arcSize=40;fontColor=#000000;fillColor=#ffffc0;strokeColor=#ff0000;" vertex="1" parent="1">
          <mxGeometry x="190" y="120" width="120" height="40" as="geometry" />
        </mxCell>
        <mxCell id="DRMCdF9hFIa0MKTjvYQ9-8" value="회원수정" style="rounded=1;whiteSpace=wrap;html=1;arcSize=40;fontColor=#000000;fillColor=#ffffc0;strokeColor=#ff0000;" vertex="1" parent="1">
          <mxGeometry x="190" y="210" width="120" height="40" as="geometry" />
        </mxCell>
        <mxCell id="DRMCdF9hFIa0MKTjvYQ9-9" value="회원 수정" style="rounded=1;whiteSpace=wrap;html=1;arcSize=40;fontColor=#000000;fillColor=#ffffc0;strokeColor=#ff0000;" vertex="1" parent="1">
          <mxGeometry x="190" y="410" width="120" height="40" as="geometry" />
        </mxCell>
        <mxCell id="DRMCdF9hFIa0MKTjvYQ9-10" value="관리자 로그인" style="rounded=1;whiteSpace=wrap;html=1;arcSize=40;fontColor=#000000;fillColor=#ffffc0;strokeColor=#ff0000;" vertex="1" parent="1">
          <mxGeometry x="400" y="410" width="120" height="40" as="geometry" />
        </mxCell>
        <mxCell id="DRMCdF9hFIa0MKTjvYQ9-11" value="회원 로그인" style="rounded=1;whiteSpace=wrap;html=1;arcSize=40;fontColor=#000000;fillColor=#ffffc0;strokeColor=#ff0000;" vertex="1" parent="1">
          <mxGeometry x="400" y="150" width="120" height="40" as="geometry" />
        </mxCell>
        <mxCell id="DRMCdF9hFIa0MKTjvYQ9-12" value="패스워드 인증" style="rounded=1;whiteSpace=wrap;html=1;arcSize=40;fontColor=#000000;fillColor=#ffffc0;strokeColor=#ff0000;" vertex="1" parent="1">
          <mxGeometry x="460" y="255" width="120" height="40" as="geometry" />
        </mxCell>
        <mxCell id="DRMCdF9hFIa0MKTjvYQ9-13" value="&amp;lt;&amp;lt;include&amp;gt;&amp;gt;" style="endArrow=open;endFill=1;endSize=12;html=1;rounded=0;entryX=0.5;entryY=0;entryDx=0;entryDy=0;exitX=0.5;exitY=1;exitDx=0;exitDy=0;dashed=1;" edge="1" parent="1" source="DRMCdF9hFIa0MKTjvYQ9-11" target="DRMCdF9hFIa0MKTjvYQ9-12">
          <mxGeometry width="160" relative="1" as="geometry">
            <mxPoint x="480" y="209.5" as="sourcePoint" />
            <mxPoint x="640" y="209.5" as="targetPoint" />
          </mxGeometry>
        </mxCell>
        <mxCell id="DRMCdF9hFIa0MKTjvYQ9-14" value="&amp;lt;&amp;lt;include&amp;gt;&amp;gt;" style="endArrow=open;endFill=1;endSize=12;html=1;rounded=0;entryX=0.5;entryY=1;entryDx=0;entryDy=0;dashed=1;" edge="1" parent="1" target="DRMCdF9hFIa0MKTjvYQ9-12">
          <mxGeometry width="160" relative="1" as="geometry">
            <mxPoint x="460" y="410" as="sourcePoint" />
            <mxPoint x="530" y="265" as="targetPoint" />
            <Array as="points">
              <mxPoint x="460" y="410" />
            </Array>
          </mxGeometry>
        </mxCell>
        <mxCell id="DRMCdF9hFIa0MKTjvYQ9-15" value="&amp;lt;&amp;lt;include&amp;gt;&amp;gt;" style="endArrow=open;endFill=1;endSize=12;html=1;rounded=0;entryX=0;entryY=0.5;entryDx=0;entryDy=0;exitX=0.95;exitY=0.1;exitDx=0;exitDy=0;dashed=1;exitPerimeter=0;" edge="1" parent="1" source="DRMCdF9hFIa0MKTjvYQ9-8" target="DRMCdF9hFIa0MKTjvYQ9-11">
          <mxGeometry width="160" relative="1" as="geometry">
            <mxPoint x="470" y="200" as="sourcePoint" />
            <mxPoint x="530" y="265" as="targetPoint" />
          </mxGeometry>
        </mxCell>
        <mxCell id="DRMCdF9hFIa0MKTjvYQ9-16" value="&amp;lt;&amp;lt;include&amp;gt;&amp;gt;" style="endArrow=open;endFill=1;endSize=12;html=1;rounded=0;entryX=0;entryY=0.25;entryDx=0;entryDy=0;exitX=0.95;exitY=0.1;exitDx=0;exitDy=0;dashed=1;exitPerimeter=0;" edge="1" parent="1" target="DRMCdF9hFIa0MKTjvYQ9-10">
          <mxGeometry width="160" relative="1" as="geometry">
            <mxPoint x="310" y="349" as="sourcePoint" />
            <mxPoint x="396" y="300" as="targetPoint" />
          </mxGeometry>
        </mxCell>
        <mxCell id="DRMCdF9hFIa0MKTjvYQ9-17" value="&amp;lt;&amp;lt;include&amp;gt;&amp;gt;" style="endArrow=open;endFill=1;endSize=12;html=1;rounded=0;exitX=1;exitY=0.5;exitDx=0;exitDy=0;dashed=1;" edge="1" parent="1" source="DRMCdF9hFIa0MKTjvYQ9-21">
          <mxGeometry width="160" relative="1" as="geometry">
            <mxPoint x="320" y="359" as="sourcePoint" />
            <mxPoint x="400" y="430" as="targetPoint" />
          </mxGeometry>
        </mxCell>
        <mxCell id="DRMCdF9hFIa0MKTjvYQ9-21" value="매출 현황 조회" style="rounded=1;whiteSpace=wrap;html=1;arcSize=40;fontColor=#000000;fillColor=#ffffc0;strokeColor=#ff0000;" vertex="1" parent="1">
          <mxGeometry x="190" y="490" width="120" height="40" as="geometry" />
        </mxCell>
        <mxCell id="DRMCdF9hFIa0MKTjvYQ9-22" value="&amp;lt;&amp;lt;exclude&amp;gt;&amp;gt;" style="endArrow=none;endFill=0;endSize=12;html=1;rounded=0;exitX=0.95;exitY=0.1;exitDx=0;exitDy=0;dashed=1;exitPerimeter=0;startArrow=classic;startFill=1;" edge="1" parent="1" target="DRMCdF9hFIa0MKTjvYQ9-9">
          <mxGeometry width="160" relative="1" as="geometry">
            <mxPoint x="250" y="370" as="sourcePoint" />
            <mxPoint x="340" y="441" as="targetPoint" />
          </mxGeometry>
        </mxCell>
        <mxCell id="DRMCdF9hFIa0MKTjvYQ9-25" value="" style="line;strokeWidth=1;fillColor=none;align=left;verticalAlign=middle;spacingTop=-1;spacingLeft=3;spacingRight=3;rotatable=0;labelPosition=right;points=[];portConstraint=eastwest;strokeColor=inherit;" vertex="1" parent="1">
          <mxGeometry x="620" y="210" width="100" height="8" as="geometry" />
        </mxCell>
        <mxCell id="DRMCdF9hFIa0MKTjvYQ9-28" value="" style="line;strokeWidth=1;fillColor=none;align=left;verticalAlign=middle;spacingTop=-1;spacingLeft=3;spacingRight=3;rotatable=0;labelPosition=right;points=[];portConstraint=eastwest;strokeColor=inherit;" vertex="1" parent="1">
          <mxGeometry x="90" y="136" width="100" height="8" as="geometry" />
        </mxCell>
        <mxCell id="DRMCdF9hFIa0MKTjvYQ9-34" value="" style="endArrow=none;endFill=0;endSize=12;html=1;rounded=0;" edge="1" parent="1">
          <mxGeometry width="160" relative="1" as="geometry">
            <mxPoint x="90" y="140" as="sourcePoint" />
            <mxPoint x="190" y="229.5" as="targetPoint" />
          </mxGeometry>
        </mxCell>
        <mxCell id="DRMCdF9hFIa0MKTjvYQ9-35" value="" style="endArrow=none;endFill=0;endSize=12;html=1;rounded=0;entryX=0;entryY=0.5;entryDx=0;entryDy=0;" edge="1" parent="1" target="DRMCdF9hFIa0MKTjvYQ9-5">
          <mxGeometry width="160" relative="1" as="geometry">
            <mxPoint x="110" y="350" as="sourcePoint" />
            <mxPoint x="200" y="239.5" as="targetPoint" />
          </mxGeometry>
        </mxCell>
        <mxCell id="DRMCdF9hFIa0MKTjvYQ9-36" value="" style="endArrow=none;endFill=0;endSize=12;html=1;rounded=0;entryX=0;entryY=0.5;entryDx=0;entryDy=0;" edge="1" parent="1" target="DRMCdF9hFIa0MKTjvYQ9-21">
          <mxGeometry width="160" relative="1" as="geometry">
            <mxPoint x="110" y="350" as="sourcePoint" />
            <mxPoint x="200" y="360" as="targetPoint" />
          </mxGeometry>
        </mxCell>
        <mxCell id="DRMCdF9hFIa0MKTjvYQ9-37" value="관리자" style="shape=umlActor;verticalLabelPosition=bottom;verticalAlign=top;html=1;" vertex="1" parent="1">
          <mxGeometry x="60" y="330" width="30" height="60" as="geometry" />
        </mxCell>
      </root>
    </mxGraphModel>
  </diagram>
</mxfile>
